<mxfile host="Electron" agent="Mozilla/5.0 (Macintosh; Intel Mac OS X 10_15_7) AppleWebKit/537.36 (KHTML, like Gecko) draw.io/25.0.2 Chrome/128.0.6613.186 Electron/32.2.5 Safari/537.36" version="25.0.2">
  <diagram id="C5RBs43oDa-KdzZeNtuy" name="Page-1">
    <mxGraphModel dx="1908" dy="85" grid="0" gridSize="10" guides="1" tooltips="1" connect="1" arrows="1" fold="1" page="1" pageScale="1" pageWidth="827" pageHeight="1169" math="0" shadow="0">
      <root>
        <mxCell id="WIyWlLk6GJQsqaUBKTNV-0" />
        <mxCell id="WIyWlLk6GJQsqaUBKTNV-1" parent="WIyWlLk6GJQsqaUBKTNV-0" />
        <mxCell id="FSEgTZkNE_-apT6jtSsS-69" value="Public timeline&amp;nbsp;" style="rounded=1;whiteSpace=wrap;html=1;arcSize=40;html=1;glass=0;shadow=0;labelBackgroundColor=none;fillColor=#f5f5f5;fontColor=#333333;strokeColor=#666666;" parent="WIyWlLk6GJQsqaUBKTNV-1" vertex="1">
          <mxGeometry x="463" y="1290" width="120" height="40" as="geometry" />
        </mxCell>
        <mxCell id="FSEgTZkNE_-apT6jtSsS-70" value="Register" style="rounded=1;whiteSpace=wrap;html=1;arcSize=40;whiteSpace=wrap;html=1;labelBackgroundColor=none;fillColor=#f5f5f5;fontColor=#333333;strokeColor=#666666;" parent="WIyWlLk6GJQsqaUBKTNV-1" vertex="1">
          <mxGeometry x="463" y="1360" width="120" height="40" as="geometry" />
        </mxCell>
        <mxCell id="FSEgTZkNE_-apT6jtSsS-71" value="Was&amp;nbsp;&lt;span style=&quot;background-color: initial;&quot;&gt;registration&amp;nbsp;&lt;/span&gt;&lt;div&gt;&lt;div&gt;succesfuld?&lt;/div&gt;&lt;/div&gt;" style="rhombus;whiteSpace=wrap;html=1;rounded=0;labelBackgroundColor=none;fillColor=#f5f5f5;fontColor=#333333;strokeColor=#666666;" parent="WIyWlLk6GJQsqaUBKTNV-1" vertex="1">
          <mxGeometry x="360" y="1810" width="160" height="50" as="geometry" />
        </mxCell>
        <mxCell id="FSEgTZkNE_-apT6jtSsS-75" value="" style="endArrow=classic;html=1;rounded=0;entryX=0.5;entryY=0;entryDx=0;entryDy=0;labelBackgroundColor=none;fontColor=default;" parent="WIyWlLk6GJQsqaUBKTNV-1" target="FSEgTZkNE_-apT6jtSsS-69" edge="1">
          <mxGeometry width="50" height="50" relative="1" as="geometry">
            <mxPoint x="523" y="1250" as="sourcePoint" />
            <mxPoint x="553" y="1280" as="targetPoint" />
          </mxGeometry>
        </mxCell>
        <mxCell id="FSEgTZkNE_-apT6jtSsS-76" value="" style="endArrow=classic;html=1;rounded=0;labelBackgroundColor=none;fontColor=default;" parent="WIyWlLk6GJQsqaUBKTNV-1" edge="1">
          <mxGeometry width="50" height="50" relative="1" as="geometry">
            <mxPoint x="523" y="1330" as="sourcePoint" />
            <mxPoint x="523.12" y="1360" as="targetPoint" />
          </mxGeometry>
        </mxCell>
        <mxCell id="FSEgTZkNE_-apT6jtSsS-77" value="" style="endArrow=classic;html=1;rounded=0;labelBackgroundColor=none;fontColor=default;" parent="WIyWlLk6GJQsqaUBKTNV-1" edge="1">
          <mxGeometry width="50" height="50" relative="1" as="geometry">
            <mxPoint x="439.38" y="1490" as="sourcePoint" />
            <mxPoint x="439.62" y="1530" as="targetPoint" />
          </mxGeometry>
        </mxCell>
        <mxCell id="FSEgTZkNE_-apT6jtSsS-78" value="" style="endArrow=classic;html=1;rounded=0;entryX=0.5;entryY=0;entryDx=0;entryDy=0;labelBackgroundColor=none;fontColor=default;" parent="WIyWlLk6GJQsqaUBKTNV-1" target="FSEgTZkNE_-apT6jtSsS-93" edge="1">
          <mxGeometry width="50" height="50" relative="1" as="geometry">
            <mxPoint x="523" y="1400" as="sourcePoint" />
            <mxPoint x="443" y="1450" as="targetPoint" />
            <Array as="points">
              <mxPoint x="523" y="1419" />
              <mxPoint x="439" y="1419" />
            </Array>
          </mxGeometry>
        </mxCell>
        <mxCell id="FSEgTZkNE_-apT6jtSsS-81" value="Yes" style="text;html=1;align=center;verticalAlign=middle;whiteSpace=wrap;rounded=0;labelBackgroundColor=none;" parent="WIyWlLk6GJQsqaUBKTNV-1" vertex="1">
          <mxGeometry x="426" y="1855" width="60" height="30" as="geometry" />
        </mxCell>
        <mxCell id="FSEgTZkNE_-apT6jtSsS-82" value="" style="endArrow=classic;html=1;rounded=0;exitX=0;exitY=0.5;exitDx=0;exitDy=0;labelBackgroundColor=none;fontColor=default;" parent="WIyWlLk6GJQsqaUBKTNV-1" source="FSEgTZkNE_-apT6jtSsS-71" edge="1">
          <mxGeometry width="50" height="50" relative="1" as="geometry">
            <mxPoint x="240" y="1829.76" as="sourcePoint" />
            <mxPoint x="120" y="1550" as="targetPoint" />
            <Array as="points">
              <mxPoint x="60" y="1835" />
              <mxPoint x="60" y="1550" />
            </Array>
          </mxGeometry>
        </mxCell>
        <mxCell id="FSEgTZkNE_-apT6jtSsS-83" value="No" style="text;html=1;align=center;verticalAlign=middle;whiteSpace=wrap;rounded=0;labelBackgroundColor=none;" parent="WIyWlLk6GJQsqaUBKTNV-1" vertex="1">
          <mxGeometry x="320" y="1810" width="60" height="30" as="geometry" />
        </mxCell>
        <mxCell id="FSEgTZkNE_-apT6jtSsS-84" value="" style="verticalLabelPosition=bottom;verticalAlign=top;html=1;shape=mxgraph.flowchart.on-page_reference;fillColor=none;rounded=0;labelBackgroundColor=none;" parent="WIyWlLk6GJQsqaUBKTNV-1" vertex="1">
          <mxGeometry x="513" y="1980" width="20" height="20" as="geometry" />
        </mxCell>
        <mxCell id="FSEgTZkNE_-apT6jtSsS-85" value="" style="verticalLabelPosition=bottom;verticalAlign=top;html=1;shape=mxgraph.flowchart.on-page_reference;rounded=0;labelBackgroundColor=none;fillColor=#000000;" parent="WIyWlLk6GJQsqaUBKTNV-1" vertex="1">
          <mxGeometry x="518" y="1985" width="10" height="10" as="geometry" />
        </mxCell>
        <mxCell id="FSEgTZkNE_-apT6jtSsS-86" value="" style="endArrow=classic;html=1;rounded=0;labelBackgroundColor=none;fontColor=default;" parent="WIyWlLk6GJQsqaUBKTNV-1" edge="1">
          <mxGeometry width="50" height="50" relative="1" as="geometry">
            <mxPoint x="439.88" y="1860" as="sourcePoint" />
            <mxPoint x="440.12" y="1900" as="targetPoint" />
          </mxGeometry>
        </mxCell>
        <mxCell id="FSEgTZkNE_-apT6jtSsS-88" value="" style="endArrow=classic;html=1;rounded=0;labelBackgroundColor=none;fontColor=default;entryX=0;entryY=0.5;entryDx=0;entryDy=0;entryPerimeter=0;" parent="WIyWlLk6GJQsqaUBKTNV-1" target="FSEgTZkNE_-apT6jtSsS-84" edge="1">
          <mxGeometry width="50" height="50" relative="1" as="geometry">
            <mxPoint x="439.66999999999996" y="1940" as="sourcePoint" />
            <mxPoint x="440" y="2010" as="targetPoint" />
            <Array as="points">
              <mxPoint x="440" y="1990" />
            </Array>
          </mxGeometry>
        </mxCell>
        <mxCell id="FSEgTZkNE_-apT6jtSsS-89" value="" style="endArrow=classic;html=1;rounded=0;labelBackgroundColor=none;fontColor=default;" parent="WIyWlLk6GJQsqaUBKTNV-1" edge="1">
          <mxGeometry width="50" height="50" relative="1" as="geometry">
            <mxPoint x="523" y="1401" as="sourcePoint" />
            <mxPoint x="603" y="1450" as="targetPoint" />
            <Array as="points">
              <mxPoint x="523" y="1419" />
              <mxPoint x="603" y="1419" />
            </Array>
          </mxGeometry>
        </mxCell>
        <mxCell id="FSEgTZkNE_-apT6jtSsS-92" value="Display Public timeline&amp;nbsp;" style="rounded=1;whiteSpace=wrap;html=1;arcSize=40;whiteSpace=wrap;html=1;glass=0;shadow=0;labelBackgroundColor=none;fillColor=#f5f5f5;fontColor=#333333;strokeColor=#666666;" parent="WIyWlLk6GJQsqaUBKTNV-1" vertex="1">
          <mxGeometry x="380" y="1900" width="120" height="40" as="geometry" />
        </mxCell>
        <mxCell id="FSEgTZkNE_-apT6jtSsS-93" value="Create new account" style="rounded=1;whiteSpace=wrap;html=1;arcSize=40;whiteSpace=wrap;html=1;labelBackgroundColor=none;fillColor=#f5f5f5;fontColor=#333333;strokeColor=#666666;" parent="WIyWlLk6GJQsqaUBKTNV-1" vertex="1">
          <mxGeometry x="380" y="1450" width="120" height="40" as="geometry" />
        </mxCell>
        <mxCell id="FSEgTZkNE_-apT6jtSsS-94" value="Use Github service&amp;nbsp;&lt;div&gt;to register&lt;/div&gt;" style="rounded=1;whiteSpace=wrap;html=1;arcSize=40;whiteSpace=wrap;html=1;labelBackgroundColor=none;fillColor=#f5f5f5;fontColor=#333333;strokeColor=#666666;" parent="WIyWlLk6GJQsqaUBKTNV-1" vertex="1">
          <mxGeometry x="540" y="1450" width="120" height="40" as="geometry" />
        </mxCell>
        <mxCell id="FSEgTZkNE_-apT6jtSsS-95" value="Type name&amp;nbsp;" style="rounded=1;whiteSpace=wrap;html=1;arcSize=40;whiteSpace=wrap;html=1;labelBackgroundColor=none;fillColor=#f5f5f5;fontColor=#333333;strokeColor=#666666;" parent="WIyWlLk6GJQsqaUBKTNV-1" vertex="1">
          <mxGeometry x="380" y="1530" width="120" height="40" as="geometry" />
        </mxCell>
        <mxCell id="FSEgTZkNE_-apT6jtSsS-96" value="Type email" style="rounded=1;whiteSpace=wrap;html=1;arcSize=40;whiteSpace=wrap;html=1;labelBackgroundColor=none;fillColor=#f5f5f5;fontColor=#333333;strokeColor=#666666;" parent="WIyWlLk6GJQsqaUBKTNV-1" vertex="1">
          <mxGeometry x="380" y="1600" width="120" height="40" as="geometry" />
        </mxCell>
        <mxCell id="FSEgTZkNE_-apT6jtSsS-97" value="Type password" style="rounded=1;whiteSpace=wrap;html=1;arcSize=40;whiteSpace=wrap;html=1;labelBackgroundColor=none;fillColor=#f5f5f5;fontColor=#333333;strokeColor=#666666;" parent="WIyWlLk6GJQsqaUBKTNV-1" vertex="1">
          <mxGeometry x="380" y="1670" width="120" height="40" as="geometry" />
        </mxCell>
        <mxCell id="FSEgTZkNE_-apT6jtSsS-98" value="Type identical password" style="rounded=1;whiteSpace=wrap;html=1;arcSize=40;whiteSpace=wrap;html=1;labelBackgroundColor=none;fillColor=#f5f5f5;fontColor=#333333;strokeColor=#666666;" parent="WIyWlLk6GJQsqaUBKTNV-1" vertex="1">
          <mxGeometry x="380" y="1740" width="120" height="40" as="geometry" />
        </mxCell>
        <mxCell id="FSEgTZkNE_-apT6jtSsS-105" value="" style="endArrow=classic;html=1;rounded=0;entryX=0;entryY=0.5;entryDx=0;entryDy=0;labelBackgroundColor=none;fontColor=default;" parent="WIyWlLk6GJQsqaUBKTNV-1" edge="1">
          <mxGeometry width="50" height="50" relative="1" as="geometry">
            <mxPoint x="60" y="1760" as="sourcePoint" />
            <mxPoint x="120" y="1760.0000000000002" as="targetPoint" />
          </mxGeometry>
        </mxCell>
        <mxCell id="FSEgTZkNE_-apT6jtSsS-106" value="" style="endArrow=classic;html=1;rounded=0;labelBackgroundColor=none;fontColor=default;" parent="WIyWlLk6GJQsqaUBKTNV-1" edge="1">
          <mxGeometry width="50" height="50" relative="1" as="geometry">
            <mxPoint x="439.87" y="1780" as="sourcePoint" />
            <mxPoint x="440" y="1810" as="targetPoint" />
          </mxGeometry>
        </mxCell>
        <mxCell id="FSEgTZkNE_-apT6jtSsS-107" value="" style="endArrow=classic;html=1;rounded=0;labelBackgroundColor=none;fontColor=default;" parent="WIyWlLk6GJQsqaUBKTNV-1" edge="1">
          <mxGeometry width="50" height="50" relative="1" as="geometry">
            <mxPoint x="439.87" y="1710" as="sourcePoint" />
            <mxPoint x="440" y="1740" as="targetPoint" />
          </mxGeometry>
        </mxCell>
        <mxCell id="FSEgTZkNE_-apT6jtSsS-108" value="" style="endArrow=classic;html=1;rounded=0;labelBackgroundColor=none;fontColor=default;" parent="WIyWlLk6GJQsqaUBKTNV-1" edge="1">
          <mxGeometry width="50" height="50" relative="1" as="geometry">
            <mxPoint x="439.87" y="1640" as="sourcePoint" />
            <mxPoint x="440" y="1670" as="targetPoint" />
          </mxGeometry>
        </mxCell>
        <mxCell id="FSEgTZkNE_-apT6jtSsS-109" value="" style="endArrow=classic;html=1;rounded=0;labelBackgroundColor=none;fontColor=default;" parent="WIyWlLk6GJQsqaUBKTNV-1" edge="1">
          <mxGeometry width="50" height="50" relative="1" as="geometry">
            <mxPoint x="439.87" y="1570" as="sourcePoint" />
            <mxPoint x="440" y="1600" as="targetPoint" />
          </mxGeometry>
        </mxCell>
        <mxCell id="FSEgTZkNE_-apT6jtSsS-126" value="Display Message" style="rounded=1;whiteSpace=wrap;html=1;arcSize=40;whiteSpace=wrap;html=1;labelBackgroundColor=none;fillColor=#f5f5f5;fontColor=#333333;strokeColor=#666666;" parent="WIyWlLk6GJQsqaUBKTNV-1" vertex="1">
          <mxGeometry x="120" y="1740" width="120" height="40" as="geometry" />
        </mxCell>
        <mxCell id="FSEgTZkNE_-apT6jtSsS-124" value="&lt;span style=&quot;line-height: 60%;&quot;&gt;&lt;font style=&quot;font-size: 7px; line-height: 10%;&quot;&gt;The password and confirmation password do not match&lt;/font&gt;&lt;/span&gt;" style="shape=note;whiteSpace=wrap;html=1;backgroundOutline=1;darkOpacity=0.05;rounded=0;flipH=1;size=5;labelBackgroundColor=none;fillColor=#fff2cc;strokeColor=#000000;" parent="WIyWlLk6GJQsqaUBKTNV-1" vertex="1">
          <mxGeometry x="248.75" y="1770" width="111.25" height="30" as="geometry" />
        </mxCell>
        <mxCell id="FSEgTZkNE_-apT6jtSsS-129" value="" style="endArrow=classic;html=1;rounded=0;entryX=0;entryY=0.5;entryDx=0;entryDy=0;labelBackgroundColor=none;fontColor=default;" parent="WIyWlLk6GJQsqaUBKTNV-1" target="FSEgTZkNE_-apT6jtSsS-98" edge="1">
          <mxGeometry width="50" height="50" relative="1" as="geometry">
            <mxPoint x="240" y="1759.6" as="sourcePoint" />
            <mxPoint x="300" y="1759.6000000000001" as="targetPoint" />
          </mxGeometry>
        </mxCell>
        <mxCell id="FSEgTZkNE_-apT6jtSsS-130" value="" style="endArrow=classic;html=1;rounded=0;entryX=0;entryY=0.5;entryDx=0;entryDy=0;labelBackgroundColor=none;fontColor=default;" parent="WIyWlLk6GJQsqaUBKTNV-1" edge="1">
          <mxGeometry width="50" height="50" relative="1" as="geometry">
            <mxPoint x="60" y="1690" as="sourcePoint" />
            <mxPoint x="120" y="1690.0000000000002" as="targetPoint" />
          </mxGeometry>
        </mxCell>
        <mxCell id="FSEgTZkNE_-apT6jtSsS-131" value="Display Message" style="rounded=1;whiteSpace=wrap;html=1;arcSize=40;whiteSpace=wrap;html=1;labelBackgroundColor=none;fillColor=#f5f5f5;fontColor=#333333;strokeColor=#666666;" parent="WIyWlLk6GJQsqaUBKTNV-1" vertex="1">
          <mxGeometry x="120" y="1670" width="120" height="40" as="geometry" />
        </mxCell>
        <mxCell id="FSEgTZkNE_-apT6jtSsS-132" value="&lt;font style=&quot;font-size: 7px;&quot;&gt;The password field is required&lt;/font&gt;" style="shape=note;whiteSpace=wrap;html=1;backgroundOutline=1;darkOpacity=0.05;rounded=0;flipH=1;size=5;labelBackgroundColor=none;fillColor=#fff2cc;strokeColor=#000000;" parent="WIyWlLk6GJQsqaUBKTNV-1" vertex="1">
          <mxGeometry x="248.75" y="1700" width="111.25" height="20" as="geometry" />
        </mxCell>
        <mxCell id="FSEgTZkNE_-apT6jtSsS-133" value="" style="endArrow=classic;html=1;rounded=0;entryX=0;entryY=0.5;entryDx=0;entryDy=0;labelBackgroundColor=none;fontColor=default;" parent="WIyWlLk6GJQsqaUBKTNV-1" edge="1">
          <mxGeometry width="50" height="50" relative="1" as="geometry">
            <mxPoint x="240" y="1689.6" as="sourcePoint" />
            <mxPoint x="380" y="1690" as="targetPoint" />
          </mxGeometry>
        </mxCell>
        <mxCell id="FSEgTZkNE_-apT6jtSsS-134" value="" style="endArrow=classic;html=1;rounded=0;entryX=0;entryY=0.5;entryDx=0;entryDy=0;labelBackgroundColor=none;fontColor=default;" parent="WIyWlLk6GJQsqaUBKTNV-1" edge="1">
          <mxGeometry width="50" height="50" relative="1" as="geometry">
            <mxPoint x="60" y="1619.6" as="sourcePoint" />
            <mxPoint x="120" y="1619.6000000000001" as="targetPoint" />
          </mxGeometry>
        </mxCell>
        <mxCell id="FSEgTZkNE_-apT6jtSsS-135" value="Display Message" style="rounded=1;whiteSpace=wrap;html=1;arcSize=40;whiteSpace=wrap;html=1;labelBackgroundColor=none;fillColor=#f5f5f5;fontColor=#333333;strokeColor=#666666;" parent="WIyWlLk6GJQsqaUBKTNV-1" vertex="1">
          <mxGeometry x="120" y="1600" width="120" height="40" as="geometry" />
        </mxCell>
        <mxCell id="FSEgTZkNE_-apT6jtSsS-136" value="&lt;span style=&quot;font-size: 7px;&quot;&gt;The Email field is required&lt;/span&gt;" style="shape=note;whiteSpace=wrap;html=1;backgroundOutline=1;darkOpacity=0.05;rounded=0;flipH=1;size=5;labelBackgroundColor=none;fillColor=#fff2cc;strokeColor=#000000;" parent="WIyWlLk6GJQsqaUBKTNV-1" vertex="1">
          <mxGeometry x="248.75" y="1630" width="111.25" height="20" as="geometry" />
        </mxCell>
        <mxCell id="FSEgTZkNE_-apT6jtSsS-137" value="" style="endArrow=classic;html=1;rounded=0;entryX=0;entryY=0.5;entryDx=0;entryDy=0;labelBackgroundColor=none;fontColor=default;" parent="WIyWlLk6GJQsqaUBKTNV-1" edge="1">
          <mxGeometry width="50" height="50" relative="1" as="geometry">
            <mxPoint x="240" y="1619.6" as="sourcePoint" />
            <mxPoint x="380" y="1620" as="targetPoint" />
          </mxGeometry>
        </mxCell>
        <mxCell id="FSEgTZkNE_-apT6jtSsS-139" value="Display Message" style="rounded=1;whiteSpace=wrap;html=1;arcSize=40;whiteSpace=wrap;html=1;labelBackgroundColor=none;fillColor=#f5f5f5;fontColor=#333333;strokeColor=#666666;" parent="WIyWlLk6GJQsqaUBKTNV-1" vertex="1">
          <mxGeometry x="120" y="1530" width="120" height="40" as="geometry" />
        </mxCell>
        <mxCell id="FSEgTZkNE_-apT6jtSsS-140" value="&lt;span style=&quot;font-size: 7px;&quot;&gt;The Username field is required&lt;/span&gt;" style="shape=note;whiteSpace=wrap;html=1;backgroundOutline=1;darkOpacity=0.05;rounded=0;flipH=1;size=5;labelBackgroundColor=none;fillColor=#fff2cc;strokeColor=#000000;" parent="WIyWlLk6GJQsqaUBKTNV-1" vertex="1">
          <mxGeometry x="248.75" y="1560" width="111.25" height="20" as="geometry" />
        </mxCell>
        <mxCell id="FSEgTZkNE_-apT6jtSsS-141" value="" style="endArrow=classic;html=1;rounded=0;entryX=0;entryY=0.5;entryDx=0;entryDy=0;labelBackgroundColor=none;fontColor=default;" parent="WIyWlLk6GJQsqaUBKTNV-1" edge="1">
          <mxGeometry width="50" height="50" relative="1" as="geometry">
            <mxPoint x="240" y="1549.6" as="sourcePoint" />
            <mxPoint x="380" y="1550" as="targetPoint" />
          </mxGeometry>
        </mxCell>
        <mxCell id="FSEgTZkNE_-apT6jtSsS-142" value="Authorize at Github.com" style="rounded=1;whiteSpace=wrap;html=1;arcSize=40;whiteSpace=wrap;html=1;labelBackgroundColor=none;fillColor=#f5f5f5;fontColor=#333333;strokeColor=#666666;" parent="WIyWlLk6GJQsqaUBKTNV-1" vertex="1">
          <mxGeometry x="540" y="1530" width="120" height="40" as="geometry" />
        </mxCell>
        <mxCell id="FSEgTZkNE_-apT6jtSsS-143" value="Display Public timeline&amp;nbsp;" style="rounded=1;whiteSpace=wrap;html=1;arcSize=40;whiteSpace=wrap;html=1;labelBackgroundColor=none;fillColor=#f5f5f5;fontColor=#333333;strokeColor=#666666;" parent="WIyWlLk6GJQsqaUBKTNV-1" vertex="1">
          <mxGeometry x="540" y="1600" width="120" height="40" as="geometry" />
        </mxCell>
        <mxCell id="FSEgTZkNE_-apT6jtSsS-144" value="" style="endArrow=classic;html=1;rounded=0;labelBackgroundColor=none;fontColor=default;" parent="WIyWlLk6GJQsqaUBKTNV-1" edge="1">
          <mxGeometry width="50" height="50" relative="1" as="geometry">
            <mxPoint x="599.66" y="1490" as="sourcePoint" />
            <mxPoint x="599.9" y="1530" as="targetPoint" />
          </mxGeometry>
        </mxCell>
        <mxCell id="FSEgTZkNE_-apT6jtSsS-145" value="" style="endArrow=classic;html=1;rounded=0;labelBackgroundColor=none;fontColor=default;" parent="WIyWlLk6GJQsqaUBKTNV-1" edge="1">
          <mxGeometry width="50" height="50" relative="1" as="geometry">
            <mxPoint x="599.66" y="1570" as="sourcePoint" />
            <mxPoint x="600" y="1600" as="targetPoint" />
          </mxGeometry>
        </mxCell>
        <mxCell id="FSEgTZkNE_-apT6jtSsS-146" value="" style="endArrow=classic;html=1;rounded=0;labelBackgroundColor=none;fontColor=default;entryX=1;entryY=0.5;entryDx=0;entryDy=0;entryPerimeter=0;" parent="WIyWlLk6GJQsqaUBKTNV-1" target="FSEgTZkNE_-apT6jtSsS-84" edge="1">
          <mxGeometry width="50" height="50" relative="1" as="geometry">
            <mxPoint x="599.76" y="1640" as="sourcePoint" />
            <mxPoint x="600" y="2010" as="targetPoint" />
            <Array as="points">
              <mxPoint x="600" y="1990" />
            </Array>
          </mxGeometry>
        </mxCell>
        <mxCell id="FSEgTZkNE_-apT6jtSsS-147" value="" style="endArrow=none;html=1;rounded=0;entryX=0;entryY=0;entryDx=111.25;entryDy=17.5;entryPerimeter=0;exitX=0.955;exitY=0.917;exitDx=0;exitDy=0;exitPerimeter=0;" parent="WIyWlLk6GJQsqaUBKTNV-1" source="FSEgTZkNE_-apT6jtSsS-126" target="FSEgTZkNE_-apT6jtSsS-124" edge="1">
          <mxGeometry width="50" height="50" relative="1" as="geometry">
            <mxPoint x="290" y="1760" as="sourcePoint" />
            <mxPoint x="340" y="1710" as="targetPoint" />
          </mxGeometry>
        </mxCell>
        <mxCell id="FSEgTZkNE_-apT6jtSsS-148" value="" style="endArrow=none;html=1;rounded=0;entryX=0;entryY=0;entryDx=111.25;entryDy=12.5;entryPerimeter=0;exitX=0.955;exitY=0.917;exitDx=0;exitDy=0;exitPerimeter=0;" parent="WIyWlLk6GJQsqaUBKTNV-1" target="FSEgTZkNE_-apT6jtSsS-132" edge="1">
          <mxGeometry width="50" height="50" relative="1" as="geometry">
            <mxPoint x="236" y="1704.5" as="sourcePoint" />
            <mxPoint x="250" y="1715.5" as="targetPoint" />
          </mxGeometry>
        </mxCell>
        <mxCell id="FSEgTZkNE_-apT6jtSsS-149" value="" style="endArrow=none;html=1;rounded=0;entryX=0;entryY=0;entryDx=111.25;entryDy=12.5;entryPerimeter=0;exitX=0.955;exitY=0.917;exitDx=0;exitDy=0;exitPerimeter=0;" parent="WIyWlLk6GJQsqaUBKTNV-1" edge="1">
          <mxGeometry width="50" height="50" relative="1" as="geometry">
            <mxPoint x="235.75" y="1635.75" as="sourcePoint" />
            <mxPoint x="248.75" y="1644.25" as="targetPoint" />
          </mxGeometry>
        </mxCell>
        <mxCell id="FSEgTZkNE_-apT6jtSsS-150" value="" style="endArrow=none;html=1;rounded=0;entryX=0;entryY=0;entryDx=111.25;entryDy=12.5;entryPerimeter=0;exitX=0.955;exitY=0.917;exitDx=0;exitDy=0;exitPerimeter=0;" parent="WIyWlLk6GJQsqaUBKTNV-1" edge="1">
          <mxGeometry width="50" height="50" relative="1" as="geometry">
            <mxPoint x="235.75" y="1565.75" as="sourcePoint" />
            <mxPoint x="248.75" y="1574.25" as="targetPoint" />
          </mxGeometry>
        </mxCell>
        <mxCell id="FSEgTZkNE_-apT6jtSsS-68" value="" style="verticalLabelPosition=bottom;verticalAlign=top;html=1;shape=mxgraph.flowchart.on-page_reference;rounded=0;labelBackgroundColor=none;fillColor=#000000;" parent="WIyWlLk6GJQsqaUBKTNV-1" vertex="1">
          <mxGeometry x="513" y="1232" width="20" height="20" as="geometry" />
        </mxCell>
      </root>
    </mxGraphModel>
  </diagram>
</mxfile>
